name Walk1.mot
datacolumns 19
datarows 30
range 2.15000000 2.29500000
endheader

                time	   L_ground_force_vx	   L_ground_force_vy	   L_ground_force_vz	   L_ground_force_px	   L_ground_force_py	   L_ground_force_pz	   R_ground_force_vx	   R_ground_force_vy	   R_ground_force_vz	   R_ground_force_px	   R_ground_force_py	   R_ground_force_pz	   L_ground_torque_x	   L_ground_torque_y	   L_ground_torque_z	   R_ground_torque_x	   R_ground_torque_y	   R_ground_torque_z	
          2.15000000	         -0.00000000	         -0.00000000	         -0.00000000	          0.00000000	          0.00000000	          0.00000000	        -24.34603059	        544.49764852	        -32.46182236	          0.12782845	          0.00000000	          0.09635011	          0.00000000	         -0.00000000	          0.00000000	          0.00000000	          0.35386618	          0.00000000	
          2.15500000	          0.00000000	          0.00000000	          0.00000000	          0.00000000	          0.00000000	          0.00000000	        -22.18094659	        538.98055056	        -32.32269006	          0.12909122	          0.00000000	          0.09692638	          0.00000000	          0.00000000	          0.00000000	          0.00000000	          0.36476971	          0.00000000	
          2.16000000	          0.00000000	          0.00000000	          0.00000000	         -0.00000000	          0.00000000	         -0.00000000	        -20.08965416	        534.02748545	        -32.10653738	          0.13067530	          0.00000000	          0.09757023	          0.00000000	          0.00000000	          0.00000000	          0.00000000	          0.39663186	          0.00000000	
          2.16500000	          0.00000000	          0.00000000	          0.00000000	         -0.00000000	          0.00000000	         -0.00000000	        -17.96956048	        529.42220216	        -31.87650500	          0.13208909	          0.00000000	          0.09815337	          0.00000000	          0.00000000	          0.00000000	          0.00000000	          0.46287318	          0.00000000	
          2.17000000	         -0.00000000	         -0.00000000	         -0.00000000	         -0.00000000	          0.00000000	         -0.00000000	        -15.78151995	        525.10017161	        -31.47962922	          0.13319413	          0.00000000	          0.09861474	          0.00000000	         -0.00000000	          0.00000000	          0.00000000	          0.53604680	          0.00000000	
          2.17500000	         -0.00000000	         -0.00000000	         -0.00000000	          0.00000000	          0.00000000	          0.00000000	        -13.53999386	        521.45188247	        -30.96188549	          0.13433515	          0.00000000	          0.09926865	          0.00000000	         -0.00000000	          0.00000000	          0.00000000	          0.59053724	          0.00000000	
          2.18000000	         -0.00000000	         -0.00000000	         -0.00000000	          0.00000000	          0.00000000	          0.00000000	        -11.36616027	        518.57210944	        -30.58963904	          0.13568251	          0.00000000	          0.10003387	          0.00000000	         -0.00000000	          0.00000000	          0.00000000	          0.62485840	          0.00000000	
          2.18500000	          0.00000000	          0.00000000	          0.00000000	         -0.00000000	          0.00000000	         -0.00000000	         -9.25973980	        516.05983823	        -30.42306679	          0.13706113	          0.00000000	          0.10062282	          0.00000000	          0.00000000	          0.00000000	          0.00000000	          0.67052618	          0.00000000	
          2.19000000	          0.00000000	          0.00000000	          0.00000000	         -0.00000000	          0.00000000	         -0.00000000	         -7.29571402	        513.64614660	        -30.30435437	          0.13830268	          0.00000000	          0.10111742	          0.00000000	          0.00000000	          0.00000000	          0.00000000	          0.71353434	          0.00000000	
          2.19500000	          0.00000000	          0.00000000	         -0.00000000	         -0.00000000	          0.00000000	         -0.00000000	         -5.45534523	        511.41028771	        -30.25965395	          0.13953382	          0.00000000	          0.10148615	          0.00000000	          0.00000000	          0.00000000	          0.00000000	          0.78923809	          0.00000000	
          2.20000000	         -0.00000000	         -0.00000000	         -0.00000000	          0.00000000	          0.00000000	          0.00000000	         -3.59903548	        509.47540188	        -30.30121784	          0.14079213	          0.00000000	          0.10156790	          0.00000000	         -0.00000000	          0.00000000	          0.00000000	          0.87221187	          0.00000000	
          2.20500000	         -0.00000000	         -0.00000000	         -0.00000000	          0.00000000	          0.00000000	          0.00000000	         -1.74838868	        508.35430391	        -30.26395917	          0.14200266	          0.00000000	          0.10178177	          0.00000000	         -0.00000000	          0.00000000	          0.00000000	          0.89816026	          0.00000000	
          2.21000000	          0.00000000	         -0.00000000	          0.00000000	          0.00000000	          0.00000000	          0.00000000	          0.05152937	        507.79201408	        -30.23912471	          0.14319798	          0.00000000	          0.10226079	          0.00000000	         -0.00000000	          0.00000000	          0.00000000	          0.89572260	          0.00000000	
          2.21500000	          0.00000000	          0.00000000	          0.00000000	         -0.00000000	          0.00000000	         -0.00000000	          1.85789609	        507.43271772	        -30.28352983	          0.14462182	          0.00000000	          0.10279915	          0.00000000	          0.00000000	          0.00000000	          0.00000000	          0.87240167	          0.00000000	
          2.22000000	          0.00000000	          0.00000000	          0.00000000	         -0.00000000	          0.00000000	         -0.00000000	          3.59629582	        507.40613082	        -30.44439785	          0.14591865	          0.00000000	          0.10322297	          0.00000000	          0.00000000	          0.00000000	          0.00000000	          0.88421044	          0.00000000	
          2.22500000	         -0.00000000	         -0.00000000	         -0.00000000	         -0.00000000	          0.00000000	         -0.00000000	          5.28333961	        507.84642473	        -30.65959261	          0.14694218	          0.00000000	          0.10375275	          0.00000000	         -0.00000000	          0.00000000	          0.00000000	          0.94232552	          0.00000000	
          2.23000000	         -0.00000000	         -0.00000000	         -0.00000000	          0.00000000	          0.00000000	          0.00000000	          6.94737370	        508.94871527	        -30.89981840	          0.14830798	          0.00000000	          0.10425361	          0.00000000	         -0.00000000	          0.00000000	          0.00000000	          0.96424427	          0.00000000	
          2.23500000	         -0.00000000	         -0.00000000	         -0.00000000	          0.00000000	          0.00000000	          0.00000000	          8.60665081	        510.50139987	        -31.20135435	          0.14968557	          0.00000000	          0.10446760	          0.00000000	         -0.00000000	          0.00000000	          0.00000000	          0.95930540	          0.00000000	
          2.24000000	          0.00000000	          0.00000000	          0.00000000	         -0.00000000	          0.00000000	         -0.00000000	         10.24188515	        512.19949102	        -31.54731824	          0.15066888	          0.00000000	          0.10458216	          0.00000000	          0.00000000	          0.00000000	          0.00000000	          0.96422402	          0.00000000	
          2.24500000	          0.00000000	          0.00000000	          0.00000000	         -0.00000000	          0.00000000	         -0.00000000	         11.89986850	        514.27472982	        -32.02404987	          0.15146995	          0.00000000	          0.10473071	          0.00000000	          0.00000000	          0.00000000	          0.00000000	          0.99184278	          0.00000000	
          2.25000000	          0.00000000	          0.00000000	          0.00000000	         -0.00000000	          0.00000000	         -0.00000000	         13.52568441	        516.94867458	        -32.65476086	          0.15233412	          0.00000000	          0.10494108	          0.00000000	          0.00000000	          0.00000000	          0.00000000	          1.00117347	          0.00000000	
          2.25500000	         -0.00000000	         -0.00000000	         -0.00000000	          0.00000000	          0.00000000	          0.00000000	         15.15538647	        520.18701553	        -33.44852517	          0.15378131	          0.00000000	          0.10510298	          0.00000000	         -0.00000000	          0.00000000	          0.00000000	          0.97872052	          0.00000000	
          2.26000000	         -0.00000000	         -0.00000000	         -0.00000000	          0.00000000	          0.00000000	          0.00000000	         16.80041904	        523.84421560	        -34.38031327	          0.15542329	          0.00000000	          0.10509540	          0.00000000	         -0.00000000	          0.00000000	          0.00000000	          0.96479670	          0.00000000	
          2.26500000	         -0.00000000	         -0.00000000	          0.00000000	          0.00000000	          0.00000000	          0.00000000	         18.43756406	        528.12773975	        -35.35427224	          0.15688855	          0.00000000	          0.10515443	          0.00000000	         -0.00000000	          0.00000000	          0.00000000	          0.97713383	          0.00000000	
          2.27000000	          0.00000000	          0.00000000	          0.00000000	         -0.00000000	          0.00000000	         -0.00000000	         20.11777235	        532.61830356	        -36.24851976	          0.15797438	          0.00000000	          0.10529671	          0.00000000	          0.00000000	          0.00000000	          0.00000000	          1.00060147	          0.00000000	
          2.27500000	          0.00000000	          0.00000000	          0.00000000	         -0.00000000	          0.00000000	         -0.00000000	         21.70453163	        537.28638908	        -37.18043745	          0.15900399	          0.00000000	          0.10537611	          0.00000000	          0.00000000	          0.00000000	          0.00000000	          1.01018468	          0.00000000	
          2.28000000	         -0.00000000	          0.00000000	         -0.00000000	         -0.00000000	          0.00000000	         -0.00000000	         23.12393798	        542.48329289	        -38.19775413	          0.16048034	          0.00000000	          0.10534159	          0.00000000	         -0.00000000	          0.00000000	          0.00000000	          1.04204752	          0.00000000	
          2.28500000	         -0.00000000	         -0.00000000	         -0.00000000	          0.00000000	          0.00000000	          0.00000000	         24.31449116	        548.35953852	        -39.10044500	          0.16199573	          0.00000000	          0.10528535	          0.00000000	         -0.00000000	          0.00000000	          0.00000000	          1.07175624	          0.00000000	
          2.29000000	         -0.00000000	         -0.00000000	         -0.00000000	          0.00000000	          0.00000000	          0.00000000	         25.28068990	        554.87187645	        -39.73635428	          0.16322533	          0.00000000	          0.10537228	          0.00000000	         -0.00000000	          0.00000000	          0.00000000	          1.08489182	          0.00000000	
          2.29500000	          0.00000000	          0.00000000	          0.00000000	          0.00000000	          0.00000000	          0.00000000	         26.26527297	        561.78156322	        -40.18705589	          0.16447315	          0.00000000	          0.10546522	          0.00000000	          0.00000000	          0.00000000	          0.00000000	          1.14099383	          0.00000000	
